<svg width="14" height="12" viewBox="0 0 14 12" fill="none" xmlns="http://www.w3.org/2000/svg">
<path d="M12.2909 0.672913H1.71198C0.767639 0.672913 0 1.44055 0 2.38489V9.61519C0 10.5595 0.767639 11.3272 1.71198 11.3272H12.288C13.2324 11.3272 14 10.5595 14 9.61519V2.38779C14.0029 1.44345 13.2353 0.672913 12.2909 0.672913ZM13.2208 9.61519C13.2208 10.1279 12.8036 10.545 12.2909 10.545H1.71198C1.19926 10.545 0.782123 10.1279 0.782123 9.61519V2.38779C0.782123 1.87506 1.19926 1.45793 1.71198 1.45793H12.288C12.8007 1.45793 13.2179 1.87506 13.2179 2.38779V9.61519H13.2208Z" fill="#4D4D4D"/>
<path d="M8.82953 5.91023L12.2535 2.83968C12.4128 2.69484 12.4273 2.44861 12.2825 2.2864C12.1376 2.12707 11.8914 2.11259 11.7292 2.25743L7.00747 6.49538L6.0863 5.6727C6.08341 5.6698 6.08051 5.6669 6.08051 5.66401C6.06023 5.64373 6.03995 5.62635 6.01678 5.60897L2.26838 2.25453C2.10616 2.10969 1.85994 2.12418 1.7151 2.2864C1.57027 2.44861 1.58475 2.69484 1.74697 2.83968L5.21148 5.9363L1.76145 9.16618C1.60503 9.31391 1.59634 9.56014 1.74407 9.71946C1.82228 9.80057 1.92657 9.84402 2.03085 9.84402C2.12644 9.84402 2.22204 9.80926 2.29735 9.73974L5.79952 6.46351L6.74966 7.31226C6.82497 7.37888 6.91767 7.41075 7.01037 7.41075C7.10306 7.41075 7.19866 7.37599 7.27107 7.30936L8.24728 6.43454L11.7292 9.74263C11.8045 9.81505 11.903 9.84981 11.9986 9.84981C12.1029 9.84981 12.2042 9.80926 12.2825 9.72815C12.4302 9.57173 12.4244 9.3226 12.268 9.17487L8.82953 5.91023Z" fill="#4D4D4D"/>
</svg>
