<svg width="8" height="14" viewBox="0 0 8 14" fill="none" xmlns="http://www.w3.org/2000/svg">
<path d="M6.81657 0.896281L5.1176 0.893555C3.20888 0.893555 1.97538 2.1591 1.97538 4.11787V5.60449H0.267145C0.119534 5.60449 0 5.72416 0 5.87178V8.02573C0 8.17334 0.11967 8.29287 0.267145 8.29287H1.97538V13.728C1.97538 13.8756 2.09491 13.9951 2.24252 13.9951H4.47128C4.61889 13.9951 4.73842 13.8755 4.73842 13.728V8.29287H6.73574C6.88335 8.29287 7.00289 8.17334 7.00289 8.02573L7.0037 5.87178C7.0037 5.8009 6.97549 5.73302 6.92547 5.68287C6.87545 5.63271 6.8073 5.60449 6.73642 5.60449H4.73842V4.34426C4.73842 3.73855 4.88276 3.43105 5.67179 3.43105L6.81629 3.43064C6.96377 3.43064 7.0833 3.31097 7.0833 3.1635V1.16343C7.0833 1.01609 6.9639 0.896553 6.81657 0.896281Z" fill="#727272"/>
</svg>
