<svg width="15" height="14" viewBox="0 0 15 14" fill="none" xmlns="http://www.w3.org/2000/svg">
<path d="M7.83688 3.40381C5.85256 3.40381 4.24609 5.01202 4.24609 6.99459C4.24609 8.97891 5.85431 10.5854 7.83688 10.5854C9.8212 10.5854 11.4277 8.97716 11.4277 6.99459C11.4277 5.01027 9.81945 3.40381 7.83688 3.40381ZM7.83688 9.32528C6.54879 9.32528 5.50619 8.2821 5.50619 6.99459C5.50619 5.70709 6.54937 4.66391 7.83688 4.66391C9.12438 4.66391 10.1676 5.70709 10.1676 6.99459C10.1681 8.2821 9.12497 9.32528 7.83688 9.32528Z" fill="#727272"/>
<path d="M10.7196 0.0439586C9.43207 -0.0161016 6.24305 -0.013186 4.95438 0.0439586C3.82198 0.0970215 2.82312 0.370499 2.01784 1.17577C0.672027 2.52159 0.844044 4.33506 0.844044 6.99462C0.844044 9.71657 0.692436 11.4881 2.01784 12.8135C3.36891 14.1639 5.20861 13.9873 7.83668 13.9873C10.533 13.9873 11.4636 13.989 12.417 13.6199C13.7133 13.1167 14.6917 11.958 14.7873 9.87692C14.848 8.58883 14.8445 5.4004 14.7873 4.11173C14.6719 1.65509 13.3535 0.165245 10.7196 0.0439586ZM12.7575 11.9231C11.8753 12.8053 10.6514 12.7266 7.81978 12.7266C4.90423 12.7266 3.7351 12.7697 2.88201 11.9143C1.89947 10.9364 2.07732 9.36612 2.07732 6.98529C2.07732 3.76361 1.7467 1.44342 4.98003 1.27782C5.72292 1.25158 5.94158 1.24283 7.81161 1.24283L7.83785 1.26032C10.9452 1.26032 13.3832 0.934949 13.5296 4.1677C13.5628 4.90534 13.5704 5.12692 13.5704 6.99403C13.5698 9.87576 13.6246 11.0519 12.7575 11.9231Z" fill="#727272"/>
<path d="M11.5696 4.10104C12.033 4.10104 12.4087 3.72536 12.4087 3.26194C12.4087 2.79853 12.033 2.42285 11.5696 2.42285C11.1061 2.42285 10.7305 2.79853 10.7305 3.26194C10.7305 3.72536 11.1061 4.10104 11.5696 4.10104Z" fill="#727272"/>
</svg>
