<svg width="16" height="14" viewBox="0 0 16 14" fill="none" xmlns="http://www.w3.org/2000/svg">
<path d="M2.41889 0C1.32859 0 0.615723 0.699725 0.615723 1.61942C0.615723 2.5188 1.30735 3.23848 2.37705 3.23848H2.39774C3.50937 3.23848 4.20118 2.5188 4.20118 1.61942C4.1804 0.699725 3.50937 0 2.41889 0Z" fill="#727272"/>
<path d="M0.84668 4.51074H3.9695V13.9949H0.84668V4.51074Z" fill="#727272"/>
<path d="M11.6838 4.2793C9.98724 4.2793 8.8496 5.87874 8.8496 5.87874V4.50209H5.70459V13.9947H8.84942V8.69367C8.84942 8.40988 8.86992 8.12654 8.95302 7.9236C9.18037 7.35691 9.69774 6.76983 10.5666 6.76983C11.7046 6.76983 12.1597 7.64034 12.1597 8.91647V13.9947H15.3044V8.55182C15.3044 5.63609 13.7528 4.2793 11.6838 4.2793Z" fill="#727272"/>
</svg>
