<svg width="23" height="19" viewBox="0 0 23 19" fill="none" xmlns="http://www.w3.org/2000/svg">
<path d="M20.1922 0.748535H2.81254C1.26112 0.748535 0 2.00966 0 3.56107V15.4394C0 16.9908 1.26112 18.2519 2.81254 18.2519H20.1875C21.7389 18.2519 23 16.9908 23 15.4394V3.56583C23.0048 2.01442 21.7436 0.748535 20.1922 0.748535ZM21.7198 15.4394C21.7198 16.2817 21.0346 16.967 20.1922 16.967H2.81254C1.9702 16.967 1.28492 16.2817 1.28492 15.4394V3.56583C1.28492 2.7235 1.9702 2.03821 2.81254 2.03821H20.1875C21.0298 2.03821 21.7151 2.7235 21.7151 3.56583V15.4394H21.7198Z" fill="white"/>
<path d="M14.5054 9.35248L20.1304 4.308C20.3922 4.07005 20.416 3.66554 20.178 3.39904C19.9401 3.13729 19.5356 3.1135 19.2691 3.35145L11.512 10.3138L9.99865 8.96225C9.99389 8.95749 9.98913 8.95273 9.98913 8.94797C9.95581 8.91466 9.9225 8.8861 9.88443 8.85755L3.72635 3.34669C3.45985 3.10874 3.05534 3.13253 2.81739 3.39904C2.57944 3.66554 2.60324 4.07005 2.86974 4.308L8.56144 9.39531L2.89353 14.7015C2.63655 14.9442 2.62227 15.3488 2.86498 15.6105C2.99347 15.7437 3.16479 15.8151 3.33612 15.8151C3.49316 15.8151 3.65021 15.758 3.77394 15.6438L9.52751 10.2614L11.0884 11.6558C11.2122 11.7653 11.3645 11.8176 11.5168 11.8176C11.669 11.8176 11.8261 11.7605 11.9451 11.6511L13.5488 10.2138L19.2691 15.6486C19.3928 15.7675 19.5546 15.8246 19.7117 15.8246C19.883 15.8246 20.0495 15.758 20.178 15.6248C20.4207 15.3678 20.4112 14.9585 20.1542 14.7158L14.5054 9.35248Z" fill="white"/>
</svg>
