<svg width="25" height="25" viewBox="0 0 25 25" fill="none" xmlns="http://www.w3.org/2000/svg">
<path d="M25 21.4355C25 22.1745 24.5209 22.8037 23.5758 23.3053C22.9185 23.6544 22.0057 23.9614 20.8624 24.2182C18.6176 24.7223 15.6479 25 12.5 25C9.35211 25 6.38237 24.7223 4.13761 24.2184C2.99435 23.9616 2.08149 23.6544 1.42422 23.3055C0.479126 22.8037 0 22.1745 0 21.4355C0 20.6966 0.479126 20.0674 1.42422 19.5658C2.08149 19.2167 2.99435 18.9096 4.13761 18.6529C5.65662 18.3117 7.5079 18.0744 9.52148 17.9567V19.9139C7.90997 20.0125 6.40831 20.191 5.13477 20.4393C3.32413 20.7924 2.44331 21.1967 2.09351 21.4355C2.44331 21.6743 3.32394 22.0787 5.13477 22.4318C7.16877 22.8285 9.78451 23.0469 12.5 23.0469C15.2155 23.0469 17.8312 22.8285 19.8652 22.4318C21.6759 22.0787 22.5567 21.6743 22.9065 21.4355C22.5567 21.1967 21.6761 20.7924 19.8652 20.4393C18.5659 20.186 17.0292 20.0054 15.3809 19.908V17.9508C17.4324 18.0666 19.3188 18.3062 20.8624 18.6529C22.0057 18.9096 22.9185 19.2167 23.5758 19.5658C24.5209 20.0674 25 20.6966 25 21.4355ZM7.8125 4.63867C7.8125 2.08092 9.89342 0 12.4512 0C15.0089 0 17.0898 2.08092 17.0898 4.63867C17.0898 6.8615 15.5182 8.72383 13.4277 9.17358V19.9707H11.4746V9.17358C9.38416 8.72383 7.8125 6.8615 7.8125 4.63867ZM9.76562 4.63867C9.76562 6.11954 10.9703 7.32422 12.4512 7.32422C13.932 7.32422 15.1367 6.11954 15.1367 4.63867C15.1367 3.15781 13.932 1.95312 12.4512 1.95312C10.9703 1.95312 9.76562 3.15781 9.76562 4.63867Z" fill="white"/>
</svg>
