<svg width="18" height="13" viewBox="0 0 18 13" fill="none" xmlns="http://www.w3.org/2000/svg">
<path d="M17.996 4.36199C17.969 4.1474 17.8112 3.97234 17.6006 3.92326L15.8332 3.51149C15.6568 2.59886 15.3092 1.85242 14.7983 1.29009C14.0757 0.494949 13.0549 0.0917969 11.7641 0.0917969C10.5602 0.0917969 9.65567 0.477278 9.07536 1.23756C8.34288 2.19725 8.33984 3.5189 8.43929 4.37064C6.94748 3.92994 4.56822 2.98537 4.10516 1.71763C4.03259 1.51895 3.84627 1.38458 3.63481 1.37845C3.42331 1.37194 3.22959 1.4957 3.14561 1.68983C2.48859 3.2091 2.50034 4.83638 3.17971 6.39577C3.27333 6.61067 3.37361 6.81039 3.47501 6.99333L1.03461 6.2306C0.868373 6.17862 0.687189 6.21393 0.552575 6.32446C0.417962 6.435 0.348106 6.60589 0.366741 6.77904C0.373286 6.83991 0.538349 8.28608 1.50868 9.73906C2.40989 11.0885 4.19496 12.6972 7.58125 12.6972C9.30801 12.6972 10.8598 12.2575 12.1934 11.3903C13.1957 10.7386 14.0598 9.85783 14.7615 8.77259C15.3422 7.87445 15.7261 6.8666 15.8797 5.84164L17.7215 4.88498C17.9134 4.78529 18.0229 4.57659 17.996 4.36199Z" fill="#727272"/>
</svg>
